<svg width="30" height="38" viewBox="0 0 30 38" fill="none" xmlns="http://www.w3.org/2000/svg">
<path d="M5.83334 9.83335V6.16669C5.83337 5.10497 6.1407 4.06594 6.71823 3.17504C7.29576 2.28413 8.11881 1.57943 9.08803 1.146C10.0573 0.712561 11.1312 0.56892 12.1803 0.732412C13.2293 0.895903 14.2086 1.35954 15 2.06735C15.7914 1.35954 16.7707 0.895903 17.8197 0.732412C18.8688 0.56892 19.9428 0.712561 20.912 1.146C21.8812 1.57943 22.7043 2.28413 23.2818 3.17504C23.8593 4.06594 24.1667 5.10497 24.1667 6.16669V9.83335H26.9167C27.646 9.83335 28.3455 10.1231 28.8612 10.6388C29.3769 11.1545 29.6667 11.854 29.6667 12.5834V30.9259C29.6667 32.6252 28.9916 34.255 27.79 35.4566C26.5883 36.6583 24.9586 37.3334 23.2592 37.3334H7.66668C5.72176 37.3334 3.85649 36.5607 2.48123 35.1855C1.10596 33.8102 0.333344 31.9449 0.333344 30V12.5834C0.333344 11.854 0.623074 11.1545 1.1388 10.6388C1.65452 10.1231 2.354 9.83335 3.08334 9.83335H5.83334ZM17.9975 34.5834C17.2496 33.5105 16.8496 32.2337 16.8517 30.9259V12.5834H3.08334V30C3.08334 30.6019 3.20189 31.1979 3.43223 31.754C3.66256 32.3101 4.00017 32.8153 4.42577 33.2409C4.85137 33.6665 5.35664 34.0041 5.91271 34.2345C6.46879 34.4648 7.06479 34.5834 7.66668 34.5834H17.9975ZM14.0833 9.83335V6.16669C14.0833 5.43734 13.7936 4.73787 13.2779 4.22214C12.7622 3.70642 12.0627 3.41669 11.3333 3.41669C10.604 3.41669 9.90452 3.70642 9.3888 4.22214C8.87307 4.73787 8.58334 5.43734 8.58334 6.16669V9.83335H14.0833ZM16.8333 9.83335H21.4167V6.16669C21.4167 5.60062 21.2421 5.04832 20.9166 4.58519C20.5911 4.12205 20.1306 3.77065 19.598 3.57894C19.0654 3.38723 18.4866 3.36455 17.9406 3.51401C17.3946 3.66346 16.9081 3.97777 16.5473 4.41402C16.7325 4.96402 16.8333 5.55435 16.8333 6.16669V9.83335ZM19.6017 30.9259C19.6017 31.8959 19.987 32.8262 20.6729 33.5121C21.3588 34.198 22.2891 34.5834 23.2592 34.5834C24.2292 34.5834 25.1595 34.198 25.8454 33.5121C26.5313 32.8262 26.9167 31.8959 26.9167 30.9259V12.5834H19.6017V30.9259Z" fill="black"/>
</svg>
